# xmcd
# 
# Track frame offsets:
#     150
#     20081
#     30488
#     51683
#     70389
#     88033
#     105559
#     121737
#     144908
#     163695
#     181719
#     199215
#     222315
#     246574
# 
# Disc length: 3555
# 
# Revision: 5
# Processed by: cddbd v1.5.2PL0 Copyright (c) Steve Scherf et al.
# Submitted via: fre:ac v1.0.31
# 
DISCID=cc0de10e
DTITLE=BLUES BOX - The Story of the Blues - [CD 1/3)
DYEAR=2003
DGENRE=Blues
TTITLE0=Hooked on You
TTITLE1=Ain't got no - I got Life
TTITLE2=Mustang Sally
TTITLE3=River of Love
TTITLE4=Tears of Joy
TTITLE5=While my Guitar gently Weeps
TTITLE6=My time after Awhile
TTITLE7=Ghetto Child
TTITLE8=Big Foot
TTITLE9=Heaven
TTITLE10=Solid Iron Heart
TTITLE11=Believer
TTITLE12=Cry like a Rainy Day
TTITLE13=Steam Roller
EXTD=ID3G: 0
EXTT0=
EXTT1=
EXTT2=
EXTT3=
EXTT4=
EXTT5=
EXTT6=
EXTT7=
EXTT8=
EXTT9=
EXTT10=
EXTT11=
EXTT12=
EXTT13=
PLAYORDER=
